HIERARCHY
ROOT pelvis
{
  OFFSET 0 100 0
  CHANNELS 6 Xposition Yposition Zposition Zrotation Xrotation Yrotation
  JOINT pelvis_right_femur
  {
    OFFSET -10.78128 -3.44521 -0.5502486
    CHANNELS 3 Zrotation Xrotation Yrotation
    JOINT right_femur_tibia
    {
      OFFSET -0.8047443 -44.0398 -0.1307829
      CHANNELS 3 Zrotation Xrotation Yrotation
      JOINT right_tibia_foot
      {
        OFFSET 3.006224 -47.83518 -5
        CHANNELS 3 Zrotation Xrotation Yrotation
        End Site
        {
          OFFSET 0 -5 15
        }
      }
    }
  }
  JOINT pelvis_left_femur
  {
    OFFSET 10.78128 -3.44521 -0.5502486
    CHANNELS 3 Zrotation Xrotation Yrotation
    JOINT left_femur_tibia
    {
      OFFSET 0.8047443 -44.0398 -0.1307829
      CHANNELS 3 Zrotation Xrotation Yrotation
      JOINT left_tibia_foot
      {
        OFFSET -4.370144 -48.10324 -4.275266
        CHANNELS 3 Zrotation Xrotation Yrotation
        End Site
        {
          OFFSET 0 -5 15
        }
      }
    }
  }
  JOINT pelvis_spine1
  {
    OFFSET 0 6.468898 -3.129235
    CHANNELS 3 Zrotation Xrotation Yrotation
    JOINT spine1
    {
      OFFSET 0 23.15396 4.99043
      CHANNELS 3 Zrotation Xrotation Yrotation
      JOINT spine2
      {
        OFFSET 0 20.79997 -5.064912
        CHANNELS 3 Zrotation Xrotation Yrotation
        JOINT neck
        {
          OFFSET 0 14.38658 9.616178
          CHANNELS 3 Zrotation Xrotation Yrotation
          End Site
          {
            OFFSET 0 20 0
          }
        }
      }
      JOINT right_manubrium
      {
        OFFSET -5.722621 16.35077 3.967754
        CHANNELS 3 Zrotation Xrotation Yrotation
        JOINT right_clavicle
        {
          OFFSET -13.16364 1.694482 -4.693211
          CHANNELS 3 Zrotation Xrotation Yrotation
          JOINT right_humerus
          {
            OFFSET -28.5034 -0.3100689 -2.792744
            CHANNELS 3 Zrotation Xrotation Yrotation
            JOINT right_radius
            {
              OFFSET -25.15693 0.02248979 -1.271978
              CHANNELS 3 Zrotation Xrotation Yrotation
              End Site
              {
                OFFSET -15 0 0
              }
            }
          }
        }
      }
      JOINT left_manubrium
      {
        OFFSET 5.722621 16.35077 3.967754
        CHANNELS 3 Zrotation Xrotation Yrotation
        JOINT left_clavicle
        {
          OFFSET 13.16364 1.694482 -4.693211
          CHANNELS 3 Zrotation Xrotation Yrotation
          JOINT left_humerus
          {
            OFFSET 29.39168 -1.063119 -2.237045
            CHANNELS 3 Zrotation Xrotation Yrotation
            JOINT left_radius
            {
              OFFSET 24.59957 -0.9528479 0.9047498
              CHANNELS 3 Zrotation Xrotation Yrotation
              End Site
              {
                OFFSET 15 -0 -0
              }
            }
          }
        }
      }
    }
  }
}
MOTION
Frames: 13
Frame Time: 0.0416666666667
-990.0733 130.3901 199.6698 9.696052 4.85027 121.8807 6.47665 9.169884 -0.5805608 -0 16.98194 -0 -6.261311 -4.530414 -1.064106 3.558695 -10.93535 -1.624113 -0 13.67249 -0 3.27353 0.03893277 14.04256 2.290584 -5.819063 8.161788 0.5581764 20.23131 -7.492036 0.3442768 18.07007 3.35156 1.165256 -17.5218 3.970908 -0.7374383 -33.15236 14.95698 90.4889 11.22756 -14.40298 -0 0 28.01879 -31.45495 20.45488 16.95689 2.026772 -26.67845 -11.54299 -92.86877 5.883399 36.4136 0 0 -13.35838 8.002768 13.51416 1.754028
-985.4149 130.3362 195.2615 9.74522 4.749968 121.2931 6.47665 9.169884 -0.5805608 -0 16.98194 -0 -6.261311 -4.530414 -1.064106 3.558695 -10.93535 -1.624113 -0 13.67249 -0 3.27353 0.03893277 14.04256 2.290584 -5.819063 8.161788 0.5581764 20.23131 -7.492036 0.3442768 18.07007 3.35156 1.165256 -17.5218 3.970908 -0.7374383 -33.15236 14.95698 90.4889 11.22756 -14.40298 -0 0 28.01879 -31.45495 20.45488 16.95689 2.026772 -26.67845 -11.54299 -92.86877 5.883399 36.4136 0 0 -13.35838 8.002768 13.51416 1.754028
-980.7111 130.2824 190.9018 9.793347 4.649169 120.7057 6.47665 9.169884 -0.5805608 -0 16.98194 -0 -6.261311 -4.530414 -1.064106 3.558695 -10.93535 -1.624113 -0 13.67249 -0 3.27353 0.03893277 14.04256 2.290584 -5.819063 8.161788 0.5581764 20.23131 -7.492036 0.3442768 18.07007 3.35156 1.165256 -17.5218 3.970908 -0.7374383 -33.15236 14.95698 90.4889 11.22756 -14.40298 -0 0 28.01879 -31.45495 20.45488 16.95689 2.026772 -26.67845 -11.54299 -92.86877 5.883399 36.4136 0 0 -13.35838 8.002768 13.51416 1.754028
-975.9624 130.2285 186.5911 9.840428 4.547884 120.1185 6.47665 9.169884 -0.5805608 -0 16.98194 -0 -6.261311 -4.530414 -1.064106 3.558695 -10.93535 -1.624113 -0 13.67249 -0 3.27353 0.03893277 14.04256 2.290584 -5.819063 8.161788 0.5581764 20.23131 -7.492036 0.3442768 18.07007 3.35156 1.165256 -17.5218 3.970908 -0.7374383 -33.15236 14.95698 90.4889 11.22756 -14.40298 -0 0 28.01879 -31.45495 20.45488 16.95689 2.026772 -26.67845 -11.54299 -92.86877 5.883399 36.4136 0 0 -13.35838 8.002768 13.51416 1.754028
-971.1692 130.1746 182.3298 9.886459 4.446124 119.5314 6.47665 9.169884 -0.5805608 -0 16.98194 -0 -6.261311 -4.530414 -1.064106 3.558695 -10.93535 -1.624113 -0 13.67249 -0 3.27353 0.03893277 14.04256 2.290584 -5.819063 8.161788 0.5581764 20.23131 -7.492036 0.3442768 18.07007 3.35156 1.165256 -17.5218 3.970908 -0.7374383 -33.15236 14.95698 90.4889 11.22756 -14.40298 -0 0 28.01879 -31.45495 20.45488 16.95689 2.026772 -26.67845 -11.54299 -92.86877 5.883399 36.4136 0 0 -13.35838 8.002768 13.51416 1.754028
-966.3321 130.1208 178.1185 9.931435 4.343899 118.9445 6.47665 9.169884 -0.5805608 -0 16.98194 -0 -6.261311 -4.530414 -1.064106 3.558695 -10.93535 -1.624113 -0 13.67249 -0 3.27353 0.03893277 14.04256 2.290584 -5.819063 8.161788 0.5581764 20.23131 -7.492036 0.3442768 18.07007 3.35156 1.165256 -17.5218 3.970908 -0.7374383 -33.15236 14.95698 90.4889 11.22756 -14.40298 -0 0 28.01879 -31.45495 20.45488 16.95689 2.026772 -26.67845 -11.54299 -92.86877 5.883399 36.4136 0 0 -13.35838 8.002768 13.51416 1.754028
-961.4516 130.0669 173.9576 9.975353 4.241219 118.3578 6.47665 9.169884 -0.5805608 -0 16.98194 -0 -6.261311 -4.530414 -1.064106 3.558695 -10.93535 -1.624113 -0 13.67249 -0 3.27353 0.03893277 14.04256 2.290584 -5.819063 8.161788 0.5581764 20.23131 -7.492036 0.3442768 18.07007 3.35156 1.165256 -17.5218 3.970908 -0.7374383 -33.15236 14.95698 90.4889 11.22756 -14.40298 -0 0 28.01879 -31.45495 20.45488 16.95689 2.026772 -26.67845 -11.54299 -92.86877 5.883399 36.4136 0 0 -13.35838 8.002768 13.51416 1.754028
-956.5282 130.013 169.8474 10.01821 4.138097 117.7712 6.47665 9.169884 -0.5805608 -0 16.98194 -0 -6.261311 -4.530414 -1.064106 3.558695 -10.93535 -1.624113 -0 13.67249 -0 3.27353 0.03893277 14.04256 2.290584 -5.819063 8.161788 0.5581764 20.23131 -7.492036 0.3442768 18.07007 3.35156 1.165256 -17.5218 3.970908 -0.7374383 -33.15236 14.95698 90.4889 11.22756 -14.40298 -0 0 28.01879 -31.45495 20.45488 16.95689 2.026772 -26.67845 -11.54299 -92.86877 5.883399 36.4136 0 0 -13.35838 8.002768 13.51416 1.754028
-951.5625 129.9592 165.7886 10.06 4.034542 117.1847 6.47665 9.169884 -0.5805608 -0 16.98194 -0 -6.261311 -4.530414 -1.064106 3.558695 -10.93535 -1.624113 -0 13.67249 -0 3.27353 0.03893277 14.04256 2.290584 -5.819063 8.161788 0.5581764 20.23131 -7.492036 0.3442768 18.07007 3.35156 1.165256 -17.5218 3.970908 -0.7374383 -33.15236 14.95698 90.4889 11.22756 -14.40298 -0 0 28.01879 -31.45495 20.45488 16.95689 2.026772 -26.67845 -11.54299 -92.86877 5.883399 36.4136 0 0 -13.35838 8.002768 13.51416 1.754028
-946.5549 129.9053 161.7814 10.10072 3.930567 116.5985 6.47665 9.169884 -0.5805608 -0 16.98194 -0 -6.261311 -4.530414 -1.064106 3.558695 -10.93535 -1.624113 -0 13.67249 -0 3.27353 0.03893277 14.04256 2.290584 -5.819063 8.161788 0.5581764 20.23131 -7.492036 0.3442768 18.07007 3.35156 1.165256 -17.5218 3.970908 -0.7374383 -33.15236 14.95698 90.4889 11.22756 -14.40298 -0 0 28.01879 -31.45495 20.45488 16.95689 2.026772 -26.67845 -11.54299 -92.86877 5.883399 36.4136 0 0 -13.35838 8.002768 13.51416 1.754028
-941.5061 129.8515 157.8264 10.14036 3.826181 116.0123 6.47665 9.169884 -0.5805608 -0 16.98194 -0 -6.261311 -4.530414 -1.064106 3.558695 -10.93535 -1.624113 -0 13.67249 -0 3.27353 0.03893277 14.04256 2.290584 -5.819063 8.161788 0.5581764 20.23131 -7.492036 0.3442768 18.07007 3.35156 1.165256 -17.5218 3.970908 -0.7374383 -33.15236 14.95698 90.4889 11.22756 -14.40298 -0 0 28.01879 -31.45495 20.45488 16.95689 2.026772 -26.67845 -11.54299 -92.86877 5.883399 36.4136 0 0 -13.35838 8.002768 13.51416 1.754028
-936.4165 129.7976 153.9239 10.17893 3.721396 115.4263 6.47665 9.169884 -0.5805608 -0 16.98194 -0 -6.261311 -4.530414 -1.064106 3.558695 -10.93535 -1.624113 -0 13.67249 -0 3.27353 0.03893277 14.04256 2.290584 -5.819063 8.161788 0.5581764 20.23131 -7.492036 0.3442768 18.07007 3.35156 1.165256 -17.5218 3.970908 -0.7374383 -33.15236 14.95698 90.4889 11.22756 -14.40298 -0 0 28.01879 -31.45495 20.45488 16.95689 2.026772 -26.67845 -11.54299 -92.86877 5.883399 36.4136 0 0 -13.35838 8.002768 13.51416 1.754028
-931.2868 129.7437 150.0744 10.21642 3.616223 114.8405 6.47665 9.169884 -0.5805608 -0 16.98194 -0 -6.261311 -4.530414 -1.064106 3.558695 -10.93535 -1.624113 -0 13.67249 -0 3.27353 0.03893277 14.04256 2.290584 -5.819063 8.161788 0.5581764 20.23131 -7.492036 0.3442768 18.07007 3.35156 1.165256 -17.5218 3.970908 -0.7374383 -33.15236 14.95698 90.4889 11.22756 -14.40298 -0 0 28.01879 -31.45495 20.45488 16.95689 2.026772 -26.67845 -11.54299 -92.86877 5.883399 36.4136 0 0 -13.35838 8.002768 13.51416 1.754028
